# xmcd
# 
# Track frame offsets:
#     150
#     12642
#     22542
#     34975
#     43220
#     55225
#     67672
#     79325
#     94572
#     105022
#     116522
#     127080
#     135417
#     142525
#     155357
#     164297
#     174310
#     188270
#     197145
#     209417
#     222982
#     234282
#     243795
# 
# Disc length: 3358
# 
# Revision: 0
# Processed by: cddbd v1.5.2PL0 Copyright (c) Steve Scherf et al.
# Submitted via: BonkEnc v1.0rc1
# 
DISCID=1e0d1c17
DTITLE=Willie Nelson - Classic Collection 23 of his Best
DYEAR=1997
DGENRE=Country
TTITLE0=Country Willie
TTITLE1=Healing hands of Time
TTITLE2=Shelter of your Arms
TTITLE3=Things to Remember
TTITLE4=Night life
TTITLE5=I can`t find the Time
TTITLE6=Is there something on your mind
TTITLE7=Face of a Fighter
TTITLE8=Briken Promises
TTITLE9=Suffer in Silence
TTITLE10=Blame it on the Times
TTITLE11=You wouldn`t cross the Street to say Goodbye
TTITLE12=Both Ends of the Candle
TTITLE13=Andy old Arms won`t do
TTITLE14=The Ghost
TTITLE15=I didn`t Sleep a wink
TTITLE16=Home is where you`re Happy
TTITLE17=Why are you picking on me
TTITLE18=Happiness lives next door
TTITLE19=Everything but you
TTITLE20=I`m gonna lose a lot of Teardrops
TTITLE21=Building Heartachers
TTITLE22=Half a Man
EXTD=
EXTT0=
EXTT1=
EXTT2=
EXTT3=
EXTT4=
EXTT5=
EXTT6=
EXTT7=
EXTT8=
EXTT9=
EXTT10=
EXTT11=
EXTT12=
EXTT13=
EXTT14=
EXTT15=
EXTT16=
EXTT17=
EXTT18=
EXTT19=
EXTT20=
EXTT21=
EXTT22=
PLAYORDER=
